<svg xmlns="http://www.w3.org/2000/svg" xmlns:xlink="http://www.w3.org/1999/xlink" width="375pt" height="374.999991pt" viewBox="0 0 375 374.999991"><defs><clipPath id="clip1"><path d="M 1 2.109375 L 373 2.109375 L 373 372.609375 L 1 372.609375 Z M 1 2.109375 "/></clipPath></defs><g id="surface1"><path style=" stroke:none;fill-rule:nonzero;fill:rgb(100%,100%,100%);fill-opacity:1;" d="M 174.835938 335.40625 L 199.539062 335.40625 L 199.539062 347.742188 L 174.835938 347.742188 L 174.835938 335.40625 "/><path style=" stroke:none;fill-rule:nonzero;fill:rgb(100%,100%,100%);fill-opacity:1;" d="M 174.835938 156.40625 L 199.539062 156.40625 L 199.539062 168.742188 L 174.835938 168.742188 L 174.835938 156.40625 "/><g clip-path="url(#clip1)" clip-rule="nonzero"><path style=" stroke:none;fill-rule:nonzero;fill:rgb(100%,100%,100%);fill-opacity:1;" d="M 354.03125 181.109375 L 292.246094 181.109375 C 288.558594 181.109375 286.054688 178.644531 286.054688 174.925781 L 286.054688 131.738281 L 360.222656 131.738281 L 360.222656 174.925781 C 360.222656 178.644531 357.75 181.109375 354.03125 181.109375 Z M 328.703125 231.105469 C 301.5 228.015625 276.800781 247.125 273.703125 274.292969 C 272.453125 284.160156 274.332031 294.65625 279.269531 303.304688 C 273.703125 307.613281 267.546875 311.957031 261.320312 315.640625 L 261.320312 150.222656 C 261.320312 139.730469 253.320312 131.738281 242.8125 131.738281 L 131.5625 131.738281 C 121.058594 131.738281 113.019531 139.730469 113.019531 150.222656 L 113.019531 315.640625 C 103.765625 310.082031 94.480469 303.304688 86.445312 295.902344 C 98.828125 279.851562 96.355469 257.027344 80.285156 244.65625 C 74.09375 239.722656 66.058594 236.632812 57.394531 236.632812 L 56.804688 236.632812 C 53.707031 236.632812 50.613281 237.257812 47.515625 237.882812 C 43.828125 227.390625 40.730469 215.648438 39.480469 204.5625 C 66.058594 210.714844 92.636719 194.070312 98.828125 167.523438 C 104.984375 140.980469 88.320312 114.4375 61.742188 108.253906 L 61.117188 108.253906 C 74.09375 87.894531 91.417969 71.25 112.429688 58.882812 L 112.429688 82.332031 C 112.429688 92.828125 120.429688 100.851562 130.9375 100.851562 L 165.550781 100.851562 L 186.5625 121.835938 L 207.574219 100.851562 L 242.8125 100.851562 C 253.320312 100.851562 261.320312 92.828125 261.320312 82.332031 L 261.320312 58.882812 C 277.425781 68.15625 291.621094 80.492188 302.75 94.703125 L 292.246094 94.703125 C 281.742188 94.703125 273.703125 102.726562 273.703125 113.21875 L 273.703125 174.925781 C 273.703125 185.417969 281.742188 193.445312 292.246094 193.445312 L 335.519531 193.445312 C 334.894531 206.402344 332.390625 218.738281 328.703125 231.105469 Z M 360.222656 279.851562 C 360.222656 300.214844 343.523438 316.890625 323.136719 316.890625 C 302.75 316.890625 286.054688 300.214844 286.054688 279.851562 C 286.054688 259.492188 302.75 242.816406 323.136719 242.816406 C 343.523438 242.816406 360.222656 259.492188 360.222656 279.851562 Z M 242.8125 360.078125 L 131.5625 360.078125 C 127.875 360.078125 125.371094 357.609375 125.371094 353.925781 L 125.371094 323.039062 L 249.003906 323.039062 L 249.003906 353.925781 C 249.003906 357.609375 246.5 360.078125 242.8125 360.078125 Z M 249.003906 310.707031 L 125.371094 310.707031 L 125.371094 150.222656 C 125.371094 146.539062 127.875 144.074219 131.5625 144.074219 L 242.8125 144.074219 C 246.5 144.074219 249.003906 146.539062 249.003906 150.222656 Z M 57.394531 308.238281 L 40.105469 290.96875 C 30.820312 281.695312 30.820312 266.269531 40.105469 256.402344 C 44.421875 252.089844 50.613281 249 57.394531 249 L 58.023438 249 C 71.625 249 82.128906 260.117188 82.128906 273.078125 C 82.128906 279.226562 79.660156 286.035156 74.71875 290.34375 Z M 14.15625 156.40625 C 14.15625 136.046875 30.820312 119.371094 51.238281 119.371094 C 71.625 119.371094 88.320312 136.046875 88.320312 156.40625 C 88.320312 176.769531 71.625 193.445312 51.238281 193.445312 C 30.820312 193.445312 14.15625 176.769531 14.15625 156.40625 Z M 125.371094 20.628906 C 125.371094 16.910156 127.875 14.445312 131.5625 14.445312 L 242.8125 14.445312 C 246.5 14.445312 249.003906 16.910156 249.003906 20.628906 L 249.003906 82.332031 C 249.003906 86.050781 246.5 88.519531 242.8125 88.519531 L 203.257812 88.519531 L 187.1875 104.570312 L 171.117188 88.519531 L 131.5625 88.519531 C 127.875 88.519531 125.371094 86.050781 125.371094 82.332031 Z M 360.222656 113.21875 L 360.222656 119.371094 L 286.054688 119.371094 L 286.054688 113.21875 C 286.054688 109.503906 288.558594 107.035156 292.246094 107.035156 L 354.03125 107.035156 C 357.75 107.035156 360.222656 109.503906 360.222656 113.21875 Z M 354.03125 94.703125 L 347.871094 94.703125 L 347.871094 82.332031 L 335.519531 82.332031 L 335.519531 94.703125 L 318.199219 94.703125 C 303.378906 73.714844 283.585938 57.039062 261.320312 44.703125 L 261.320312 20.628906 C 261.320312 10.136719 253.320312 2.109375 242.8125 2.109375 L 131.5625 2.109375 C 121.058594 2.109375 113.019531 10.136719 113.019531 20.628906 L 113.019531 44.703125 C 85.851562 58.882812 63.585938 80.492188 48.140625 107.035156 C 20.9375 108.878906 0.554688 132.332031 1.804688 159.5 C 3.023438 176.175781 12.308594 190.976562 27.128906 199.628906 C 28.347656 214.429688 31.445312 229.230469 36.382812 242.816406 C 19.71875 253.933594 14.78125 276.761719 26.503906 294.0625 C 27.757812 295.902344 29.601562 297.746094 30.820312 299.589844 L 57.394531 326.132812 L 77.816406 305.773438 C 88.320312 315.640625 100.046875 323.664062 113.019531 330.472656 L 113.019531 353.925781 C 113.019531 364.417969 121.058594 372.445312 131.5625 372.445312 L 242.8125 372.445312 C 253.320312 372.445312 261.320312 364.417969 261.320312 353.925781 L 261.320312 329.847656 C 270.609375 324.914062 278.644531 319.980469 286.679688 313.171875 C 305.222656 333.53125 336.113281 334.78125 356.53125 316.265625 C 376.886719 297.746094 378.136719 266.894531 359.59375 246.53125 C 354.65625 240.972656 347.871094 236.632812 341.054688 233.574219 C 344.773438 220.613281 347.246094 207.027344 347.871094 193.445312 L 354.03125 193.445312 C 364.535156 193.445312 372.570312 185.417969 372.570312 174.925781 L 372.570312 113.21875 C 372.570312 102.726562 364.535156 94.703125 354.03125 94.703125 "/></g><path style=" stroke:none;fill-rule:nonzero;fill:rgb(100%,100%,100%);fill-opacity:1;" d="M 73.46875 163.808594 L 57.394531 153.316406 L 57.394531 131.738281 L 45.046875 131.738281 L 45.046875 159.5 L 66.058594 173.710938 L 73.46875 163.808594 "/><path style=" stroke:none;fill-rule:nonzero;fill:rgb(100%,100%,100%);fill-opacity:1;" d="M 304.597656 144.074219 L 316.980469 144.074219 L 316.980469 168.742188 L 304.597656 168.742188 L 304.597656 144.074219 "/><path style=" stroke:none;fill-rule:nonzero;fill:rgb(100%,100%,100%);fill-opacity:1;" d="M 329.328125 144.074219 L 341.679688 144.074219 L 341.679688 168.742188 L 329.328125 168.742188 L 329.328125 144.074219 "/><path style=" stroke:none;fill-rule:nonzero;fill:rgb(100%,100%,100%);fill-opacity:1;" d="M 32.695312 335.40625 L 82.128906 335.40625 L 82.128906 347.742188 L 32.695312 347.742188 L 32.695312 335.40625 "/><path style=" stroke:none;fill-rule:nonzero;fill:rgb(100%,100%,100%);fill-opacity:1;" d="M 162.453125 32.960938 L 236.621094 32.960938 L 236.621094 45.296875 L 162.453125 45.296875 L 162.453125 32.960938 "/><path style=" stroke:none;fill-rule:nonzero;fill:rgb(100%,100%,100%);fill-opacity:1;" d="M 162.453125 63.816406 L 236.621094 63.816406 L 236.621094 76.183594 L 162.453125 76.183594 L 162.453125 63.816406 "/><path style=" stroke:none;fill-rule:nonzero;fill:rgb(100%,100%,100%);fill-opacity:1;" d="M 316.980469 255.152344 L 329.328125 255.152344 L 329.328125 279.851562 L 316.980469 279.851562 L 316.980469 255.152344 "/><path style=" stroke:none;fill-rule:nonzero;fill:rgb(100%,100%,100%);fill-opacity:1;" d="M 316.980469 292.1875 L 329.328125 292.1875 L 329.328125 304.554688 L 316.980469 304.554688 L 316.980469 292.1875 "/><path style=" stroke:none;fill-rule:nonzero;fill:rgb(100%,100%,100%);fill-opacity:1;" d="M 137.753906 32.960938 L 150.105469 32.960938 L 150.105469 45.296875 L 137.753906 45.296875 L 137.753906 32.960938 "/><path style=" stroke:none;fill-rule:nonzero;fill:rgb(100%,100%,100%);fill-opacity:1;" d="M 137.753906 63.816406 L 150.105469 63.816406 L 150.105469 76.183594 L 137.753906 76.183594 L 137.753906 63.816406 "/></g></svg>