<svg xmlns="http://www.w3.org/2000/svg" xmlns:xlink="http://www.w3.org/1999/xlink" id="Layer_1" x="0px" y="0px" viewBox="0 0 512 512" style="enable-background:new 0 0 512 512;" xml:space="preserve">
<style type="text/css">
	.st0{fill:#FFFFFF;}
</style>
<g>
	<g>
		<path class="st0" d="M67.3,146.8H10.2C4.6,146.8,0,151.4,0,157v278.9c0,5.6,4.6,10.2,10.2,10.2h491.6c5.6,0,10.2-4.6,10.2-10.2    V157c0-5.6-4.6-10.2-10.2-10.2H157.1H67.3z M67.1,167.1l424.5,0.1v258.5l0,0H20.4L19.9,167L67.1,167.1L67.1,167.1z"/>
	</g>
</g>
<g>
	<g>
		<path class="st0" d="M207,348.4H73c-5.6,0-10.2,4.6-10.2,10.2s4.6,10.2,10.2,10.2h134c5.6,0,10.2-4.6,10.2-10.2    S212.7,348.4,207,348.4z"/>
	</g>
</g>
<g>
	<g>
		<path class="st0" d="M80.5,283h-8c-5.6,0-10.2,4.6-10.2,10.2s4.6,10.2,10.2,10.2h8c5.6,0,10.2-4.6,10.2-10.2S86.1,283,80.5,283z"/>
	</g>
</g>
<g>
	<g>
		<path class="st0" d="M207,283h-87.8c-5.6,0-10.2,4.6-10.2,10.2s4.6,10.2,10.2,10.2H207c5.6,0,10.2-4.6,10.2-10.2    S212.7,283,207,283z"/>
	</g>
</g>
<g>
	<g>
		<path class="st0" d="M351,306.5c-56.4,0-102.3,37.7-102.3,84.1c0,5.6,4.6,10.2,10.2,10.2h184.3c5.6,0,10.2-4.6,10.2-10.2    C453.4,344.2,407.4,306.5,351,306.5z M270.1,380.3c6.3-30.3,40.2-53.5,80.9-53.5s74.6,23.2,80.9,53.5H270.1z"/>
	</g>
</g>
<g>
	<g>
		<path class="st0" d="M351.9,190.5c-29.2,0-53,23.8-53,53s23.8,53,53,53s53-23.8,53-53S381.1,190.5,351.9,190.5z M351.9,276.2    c-18,0-32.6-14.6-32.6-32.6s14.6-32.6,32.6-32.6s32.6,14.6,32.6,32.6C384.5,261.5,369.9,276.2,351.9,276.2z"/>
	</g>
</g>
</svg>